<svg width="256" height="256" viewBox="0 0 256 256" fill="none" xmlns="http://www.w3.org/2000/svg">
<rect width="256" height="256" fill="#282929"/>
<path d="M133.194 129.578L185.462 123.988C187.516 123.768 188.752 121.569 187.491 119.934C181.676 112.395 172.243 113.843 161.873 102.409C152.454 92.0248 152.514 77.6556 165.797 70.7125C172.74 66.4862 190.49 61.7166 205.946 76.4481M175.457 169.727C186.827 166.407 209.025 155.781 206.852 139.842C204.135 119.918 194.777 121.125 185.117 129.578M170.627 188.745C167.91 202.028 153.118 217.423 115.686 225.574C78.2533 233.725 82.4796 211.99 77.0458 202.632C73.6615 196.803 71.7995 174.58 70.147 154.634M67.3883 114.484C69.6847 101.12 72.9053 92.3947 77.6496 83.995C84.6531 71.6785 97.8752 70.0081 103.611 70.7125C131.786 75.3412 182.943 76.8103 162.174 45.6569M68.5935 99.6924C60.5435 93.6549 46.617 77.2933 55.311 60.1469M85.4984 65.8825C74.5303 58.235 59.1749 40.1024 85.4984 28.752M80.9702 185.123C81.7752 183.11 84.5927 179.267 89.4227 179.991C95.4602 180.897 108.139 182.708 112.667 182.406M96.3658 113.069C98.5796 107.938 108.38 99.4851 129.874 106.73M86.1021 112.975C84.4921 110.862 78.3741 106.454 66.7821 105.73M104.516 161.902C99.284 158.279 92.7433 153.547 86.7059 154.03C80.6684 154.513 78.7565 161.097 81.2722 165.524M131.383 134.71C131.383 146.047 122.733 155.237 112.063 155.237C101.393 155.237 92.7433 146.047 92.7433 134.71C92.7433 123.373 101.393 114.182 112.063 114.182C122.733 114.182 131.383 123.373 131.383 134.71ZM83.0834 134.71C83.0834 146.047 75.5148 155.237 66.1784 155.237C56.842 155.237 49.2734 146.047 49.2734 134.71C49.2734 123.373 56.842 114.182 66.1784 114.182C75.5148 114.182 83.0834 123.373 83.0834 134.71Z" stroke="#E9F451" stroke-width="6.64123"/>
</svg>
