<svg width="32" height="32" viewBox="0 0 32 32" fill="none" xmlns="http://www.w3.org/2000/svg">
<rect width="32" height="32" fill="#282929"/>
<path d="M16.7049 16.158L22.579 15.5297C22.8098 15.505 22.9487 15.2579 22.8069 15.0741C22.1535 14.2268 21.0933 14.3896 19.9278 13.1046C18.8694 11.9376 18.8761 10.3227 20.3689 9.54238C21.1492 9.06741 23.144 8.53138 24.881 10.187M21.4545 20.6701C22.7324 20.2969 25.2271 19.1027 24.9828 17.3114C24.6775 15.0723 23.6258 15.208 22.5401 16.158M20.9117 22.8074C20.6064 24.3002 18.944 26.0304 14.7372 26.9464C10.5303 27.8624 11.0053 25.4198 10.3946 24.368C10.0143 23.713 9.80502 21.2154 9.61931 18.9738M9.30926 14.4616C9.56735 12.9597 9.9293 11.9791 10.4625 11.0351C11.2496 9.65094 12.7355 9.46322 13.3801 9.54238C16.5465 10.0626 22.2959 10.2277 19.9618 6.72652M9.44471 12.7993C8.54002 12.1208 6.9749 10.282 7.95197 8.35497M11.3446 8.99956C10.1119 8.1401 8.38621 6.10228 11.3446 4.82666M10.8357 22.4003C10.9261 22.1742 11.2428 21.7422 11.7856 21.8236C12.4641 21.9254 13.889 22.1289 14.3979 22.095M12.5659 14.3026C12.8147 13.7259 13.9162 12.776 16.3317 13.5902M11.4124 14.292C11.2315 14.0545 10.5439 13.5592 9.24115 13.4778M13.4819 19.7906C12.8939 19.3835 12.1588 18.8517 11.4803 18.906C10.8017 18.9602 10.5869 19.7001 10.8696 20.1977M16.5013 16.7347C16.5013 18.0088 15.5292 19.0417 14.33 19.0417C13.1309 19.0417 12.1588 18.0088 12.1588 16.7347C12.1588 15.4606 13.1309 14.4277 14.33 14.4277C15.5292 14.4277 16.5013 15.4606 16.5013 16.7347ZM11.0732 16.7347C11.0732 18.0088 10.2226 19.0417 9.17329 19.0417C8.12403 19.0417 7.27344 18.0088 7.27344 16.7347C7.27344 15.4606 8.12403 14.4277 9.17329 14.4277C10.2226 14.4277 11.0732 15.4606 11.0732 16.7347Z" stroke="#E9F451" stroke-width="0.746372"/>
</svg>
