<svg width="155" height="45" viewBox="0 0 155 45" fill="none" xmlns="http://www.w3.org/2000/svg">
<path d="M154.055 16.5165H144.323V12.2994C144.323 12.011 144.287 11.7948 144.215 11.6506C144.179 11.5064 144.107 11.4343 143.999 11.4343C143.891 11.4343 143.8 11.5064 143.728 11.6506C143.692 11.7948 143.674 12.011 143.674 12.2994V15.3271C143.674 15.7236 143.692 16.066 143.728 16.3543C143.8 16.6067 143.963 16.877 144.215 17.1653C144.503 17.4176 144.936 17.724 145.513 18.0845C146.089 18.4449 146.9 18.9135 147.946 19.4902L149.405 20.3012C150.342 20.8058 151.099 21.3645 151.676 21.9772C152.289 22.59 152.757 23.3109 153.082 24.1399C153.442 24.9689 153.695 25.9601 153.839 27.1135C153.983 28.2309 154.055 29.5825 154.055 31.1685V31.8713C154.055 35.1153 153.172 37.6023 151.406 39.3325C149.64 41.0626 147.117 41.9276 143.836 41.9276C140.593 41.9276 138.124 41.0806 136.429 39.3865C134.771 37.6564 133.942 35.1513 133.942 31.8713V28.4111H143.674V32.6283C143.674 32.9166 143.692 33.1329 143.728 33.2771C143.8 33.4212 143.891 33.4933 143.999 33.4933C144.107 33.4933 144.179 33.4393 144.215 33.3311C144.287 33.1869 144.323 32.9707 144.323 32.6823V29.4924C144.323 29.0959 144.287 28.7715 144.215 28.5192C144.179 28.2669 144.035 28.0146 143.782 27.7623C143.566 27.51 143.188 27.2216 142.647 26.8972C142.142 26.5728 141.422 26.1403 140.484 25.5997L138.754 24.6265C137.817 24.0858 137.024 23.5091 136.375 22.8964C135.763 22.2476 135.276 21.4906 134.916 20.6256C134.555 19.7605 134.303 18.7513 134.159 17.5979C134.014 16.4445 133.942 15.0748 133.942 13.4888V13.0022C133.942 9.72223 134.789 7.23518 136.483 5.54111C138.178 3.84704 140.629 3 143.836 3C147.117 3 149.64 3.86506 151.406 5.59517C153.172 7.32529 154.055 9.79432 154.055 13.0022V16.5165Z" fill="white"/>
<path d="M113.192 3.54053H122.924V32.6281C122.924 32.7723 122.924 32.8985 122.924 33.0066C122.96 33.1147 122.978 33.2048 122.978 33.2769C123.014 33.349 123.05 33.4031 123.086 33.4391C123.159 33.4752 123.213 33.4932 123.249 33.4932C123.321 33.4932 123.375 33.4752 123.411 33.4391C123.447 33.4031 123.465 33.349 123.465 33.2769C123.501 33.2048 123.519 33.1147 123.519 33.0066C123.555 32.8985 123.573 32.7723 123.573 32.6281V3.54053H133.305V31.8712C133.305 33.4932 133.071 34.9349 132.602 36.1965C132.17 37.422 131.521 38.4673 130.656 39.3323C129.791 40.1613 128.709 40.8101 127.412 41.2787C126.15 41.7112 124.708 41.9275 123.086 41.9275C121.465 41.9275 120.041 41.7112 118.815 41.2787C117.59 40.8462 116.563 40.2154 115.733 39.3864C114.904 38.5213 114.274 37.458 113.841 36.1965C113.409 34.9349 113.192 33.4932 113.192 31.8712V3.54053Z" fill="white"/>
<path d="M101.804 3.54053V18.3006H102.453V3.54053H112.726L110.455 22.4637L112.726 41.3868H102.453V26.6808H101.804V41.3868H92.0723V3.54053H101.804Z" fill="white"/>
<path d="M71.3223 3.54053H81.2704C84.5144 3.54053 87.0195 4.36954 88.7856 6.02757C90.5518 7.64956 91.4349 10.1907 91.4349 13.6509V13.9212C91.4349 15.5072 91.2547 16.8949 90.8942 18.0843C90.5338 19.2377 90.0832 20.2109 89.5426 21.0039C89.0019 21.7969 88.4072 22.3916 87.7584 22.7881C87.1096 23.1485 86.4968 23.3287 85.9201 23.3287V23.9775C86.4968 23.9775 87.1096 24.1938 87.7584 24.6263C88.4072 25.0589 89.0019 25.6716 89.5426 26.4646C90.0832 27.2576 90.5338 28.2307 90.8942 29.3842C91.2547 30.5376 91.4349 31.8352 91.4349 33.2769V33.7095C91.4349 35.1512 91.4529 36.5029 91.4889 37.7644C91.561 38.9899 91.7232 40.1974 91.9755 41.3868H82.2436C81.9913 40.1974 81.8291 38.9719 81.757 37.7103C81.721 36.4488 81.703 35.0791 81.703 33.6013V28.7354C81.703 28.3389 81.6849 28.1046 81.6489 28.0325C81.6129 27.9244 81.4507 27.8703 81.1623 27.8703H81.0542V41.3868H71.3223V3.54053ZM81.0542 11.9748V19.436H81.1623C81.4507 19.436 81.6129 19.3999 81.6489 19.3279C81.6849 19.2197 81.703 18.9674 81.703 18.5709V12.7858C81.703 12.4254 81.6849 12.2091 81.6489 12.1371C81.6129 12.0289 81.4507 11.9748 81.1623 11.9748H81.0542Z" fill="white"/>
<path d="M53.3227 3.54053H68.4612L70.8402 41.3868H61.1082V20.5173H60.4594V41.3868H50.7275L53.3227 3.54053ZM63.325 33.6013H58.0805V25.167H63.325V33.6013Z" fill="white"/>
<path d="M24.8066 3.54053H37.2419V24.3019H37.8907V3.54053H50.2177V41.3868H41.2968L42.4322 20.8417H41.7834L40.4858 41.3868H34.5386L33.241 20.8417H32.5922L33.7276 41.3868H24.8066V3.54053Z" fill="white"/>
<path d="M18.9445 22.5592L30.1207 21.3639C30.5599 21.3169 30.8242 20.8468 30.5544 20.497C29.3111 18.885 27.294 19.1947 25.0766 16.7498C23.0627 14.5294 23.0756 11.4569 25.9157 9.97224C27.4003 9.06856 31.1958 8.04869 34.5007 11.1987M27.9813 31.1441C30.4126 30.4341 35.1591 28.162 34.6943 24.7538C34.1134 20.4936 32.1124 20.7518 30.0468 22.5592M26.9485 35.2107C26.3675 38.0508 23.2047 41.3428 15.2007 43.0856C7.19665 44.8284 8.10032 40.1809 6.93845 38.1799C6.21479 36.9336 5.81665 32.1817 5.46331 27.9167M4.87341 19.3318C5.36445 16.4741 6.0531 14.6084 7.06756 12.8124C8.56508 10.1788 11.3923 9.82162 12.6187 9.97224C18.6432 10.962 29.5821 11.2761 25.1411 4.61471M5.13112 16.1689C3.40983 14.8779 0.431992 11.3794 2.29099 7.71304M8.74582 8.93946C6.40056 7.30423 3.11719 3.42702 8.74582 1M7.77759 34.4361C7.94972 34.0058 8.55217 33.1839 9.58495 33.3388C10.8759 33.5324 13.587 33.9197 14.5552 33.8552M11.0696 19.0292C11.5429 17.9319 13.6386 16.1246 18.2344 17.6737M8.87491 19.009C8.53065 18.5572 7.22247 17.6148 4.74381 17.4599M12.8124 29.4708C11.6935 28.6962 10.295 27.6843 9.00401 27.7876C7.71304 27.8909 7.30424 29.2987 7.84215 30.2454M18.5572 23.6565C18.5572 26.0807 16.7076 28.0458 14.4261 28.0458C12.1445 28.0458 10.295 26.0807 10.295 23.6565C10.295 21.2324 12.1445 19.2672 14.4261 19.2672C16.7076 19.2672 18.5572 21.2324 18.5572 23.6565ZM8.22943 23.6565C8.22943 26.0807 6.61107 28.0458 4.61471 28.0458C2.61836 28.0458 1 26.0807 1 23.6565C1 21.2324 2.61836 19.2672 4.61471 19.2672C6.61107 19.2672 8.22943 21.2324 8.22943 23.6565Z" stroke="#E9F451" stroke-width="1.42007"/>
</svg>
