<svg width="28" height="26" viewBox="0 0 28 26" fill="none" xmlns="http://www.w3.org/2000/svg">
<path d="M7.82656 6.92407H6.01578C4.09102 6.92407 3.12944 6.92407 2.44485 7.31675C1.84411 7.66133 1.38231 8.20567 1.14117 8.85489C0.866564 9.59426 1.02463 10.5426 1.34067 12.4389L1.34132 12.4425L2.72361 20.7362C2.9581 22.143 3.07611 22.8468 3.42715 23.3748C3.7366 23.8401 4.17097 24.208 4.68085 24.4367C5.25926 24.6961 5.97214 24.6963 7.39846 24.6963H20.1032C21.5295 24.6963 22.2419 24.6961 22.8204 24.4367C23.3302 24.208 23.765 23.8401 24.0744 23.3748C24.4254 22.8468 24.5428 22.143 24.7773 20.7362L26.1595 12.4425L26.161 12.4367C26.4767 10.5419 26.6347 9.59396 26.3602 8.85489C26.1191 8.20567 25.6583 7.66133 25.0576 7.31675C24.3731 6.92407 23.4098 6.92407 21.4851 6.92407H19.6747M7.82656 6.92407H19.6747M7.82656 6.92407C7.82656 3.65229 10.4789 1 13.7506 1C17.0223 1 19.6747 3.65229 19.6747 6.92407" stroke="#E9F451" stroke-width="2"/>
</svg>
