<svg width="253" height="233" viewBox="0 0 253 233" fill="none" xmlns="http://www.w3.org/2000/svg">
<path d="M113.772 118.235L177.3 111.431C177.739 111.383 177.999 110.912 177.799 110.518C171.491 98.0432 159.656 101.711 146.5 87.1837C135.751 75.3152 135.82 58.8925 150.978 50.9571C158.902 46.1269 179.158 40.6757 196.797 57.5124M162.002 164.122C174.978 160.327 200.311 148.182 197.83 129.966C194.73 107.195 184.05 108.575 173.026 118.235M156.49 185.858C153.389 201.039 136.509 218.635 93.7905 227.95C51.0722 237.265 55.8952 212.424 49.6942 201.729C45.8319 195.067 43.707 169.668 41.8212 146.871M38.6728 100.984C41.2936 85.7101 44.969 75.7379 50.3832 66.1378C58.3757 52.0612 73.4649 50.1521 80.0105 50.9571C112.164 56.2474 170.546 57.9264 146.844 22.3209M40.0483 84.0786C30.8615 77.1783 14.9685 58.4785 24.8902 38.8816M59.3403 45.4369C46.8234 36.6965 29.2997 15.9726 59.3403 3M54.1728 181.718C57.5 185 62.1158 188.949 67.6084 188C73.5483 186.974 76.5262 184.637 79.5 182.48M93 178V189.5C93.3333 192.833 92.5 199.5 86.5 199.5C80.5 199.5 79.3333 192.833 79.5 189.5V182.48M93 178H97M93 178C90.0243 178 87.7294 178.382 85.8268 179C83.2318 179.843 81.3667 181.126 79.5 182.48M67.6084 80.378C70.1347 74.5127 89.6565 64.878 109.982 78M60.7183 100.984C58.881 98.5692 51.21 91.8069 37.9812 90.9789M81.044 155.178C75.0727 151.038 67.6084 145.629 60.7183 146.181C53.8283 146.733 51.6465 154.258 54.5173 159.318M111.705 124.1C111.705 137.058 101.833 147.561 89.6565 147.561C77.4797 147.561 67.6084 137.058 67.6084 124.1C67.6084 111.143 77.4797 100.639 89.6565 100.639C101.833 100.639 111.705 111.143 111.705 124.1ZM56.5843 124.1C56.5843 137.058 47.9469 147.561 37.2921 147.561C26.6374 147.561 18 137.058 18 124.1C18 111.143 26.6374 100.639 37.2921 100.639C47.9469 100.639 56.5843 111.143 56.5843 124.1Z" stroke="black" stroke-width="5"/>
<path d="M31 116L43 132" stroke="black" stroke-width="5"/>
<path d="M79 111L99 137" stroke="black" stroke-width="5"/>
<path d="M43 116L31 132" stroke="black" stroke-width="5"/>
<path d="M99 111L79 137" stroke="black" stroke-width="5"/>
<path d="M133 95H241.5M241.5 95L221 74.5M241.5 95L221 115.5" stroke="black" stroke-width="16"/>
<path d="M0 95H40.5" stroke="black" stroke-width="16"/>
</svg>
