<svg width="186" height="233" viewBox="0 0 186 233" fill="none" xmlns="http://www.w3.org/2000/svg">
<path d="M98.7717 118.235L162.3 111.431C162.739 111.383 162.999 110.912 162.799 110.518C156.491 98.0432 144.656 101.711 131.5 87.1837C120.751 75.3152 120.82 58.8925 135.978 50.9571C143.902 46.1269 164.158 40.6757 181.797 57.5124M147.002 164.122C159.978 160.327 185.311 148.182 182.83 129.966C179.73 107.195 169.05 108.575 158.026 118.235M141.49 185.858C138.389 201.039 121.509 218.635 78.7905 227.95C36.0722 237.265 40.8952 212.424 34.6942 201.729C30.8319 195.067 28.707 169.668 26.8212 146.871M23.6728 100.984C26.2936 85.7101 29.969 75.7379 35.3832 66.1378C43.3757 52.0612 58.4649 50.1521 65.0105 50.9571C97.164 56.2474 155.546 57.9264 131.844 22.3209M25.0483 84.0786C15.8615 77.1783 -0.031524 58.4785 9.89015 38.8816M44.3403 45.4369C31.8234 36.6965 14.2997 15.9726 44.3403 3M39.1728 181.718C42.5 185 47.1158 188.949 52.6084 188C65.0105 185.858 64.5 178 78 178M52.6084 81C55.1347 75.1347 74.6565 97 94.9822 92.122M45.7183 100.984C43.881 98.5692 36.21 91.8069 22.9812 90.9789M66.044 155.178C60.0727 151.038 52.6084 145.629 45.7183 146.181C38.8283 146.733 36.6465 154.258 39.5173 159.318M96.7047 124.1C96.7047 137.058 86.8334 147.561 74.6565 147.561C62.4797 147.561 52.6084 137.058 52.6084 124.1C52.6084 111.143 62.4797 100.639 74.6565 100.639C86.8334 100.639 96.7047 111.143 96.7047 124.1ZM41.5843 124.1C41.5843 137.058 32.9469 147.561 22.2921 147.561C11.6374 147.561 3 137.058 3 124.1C3 111.143 11.6374 100.639 22.2921 100.639C32.9469 100.639 41.5843 111.143 41.5843 124.1Z" stroke="#E9F451" stroke-width="5"/>
</svg>
