<svg width="100" height="100" viewBox="0 0 100 100" fill="none" xmlns="http://www.w3.org/2000/svg">
<path d="M70.8335 8.33325H29.1668C17.6609 8.33325 8.3335 17.6607 8.3335 29.1666V70.8333C8.3335 82.3392 17.6609 91.6666 29.1668 91.6666H70.8335C82.3394 91.6666 91.6668 82.3392 91.6668 70.8333V29.1666C91.6668 17.6607 82.3394 8.33325 70.8335 8.33325Z" stroke="#E9F451" stroke-width="8.33333" stroke-linecap="round" stroke-linejoin="round"/>
<path d="M66.6677 47.3753C67.1819 50.843 66.5896 54.3845 64.9751 57.4962C63.3605 60.6078 60.8058 63.1312 57.6745 64.7073C54.5432 66.2833 50.9946 66.8319 47.5335 66.275C44.0724 65.7181 40.8751 64.084 38.3962 61.6051C35.9174 59.1263 34.2833 55.9289 33.7263 52.4678C33.1694 49.0068 33.718 45.4582 35.2941 42.3268C36.8702 39.1955 39.3935 36.6409 42.5052 35.0263C45.6168 33.4117 49.1584 32.8194 52.6261 33.3336C56.1632 33.8581 59.4379 35.5064 61.9664 38.0349C64.495 40.5634 66.1432 43.8381 66.6677 47.3753Z" stroke="#E9F451" stroke-width="8.33333" stroke-linecap="round" stroke-linejoin="round"/>
<path d="M72.9165 27.0833H72.9582" stroke="#E9F451" stroke-width="8.33333" stroke-linecap="round" stroke-linejoin="round"/>
</svg>
